# xmcd
#
# Track frame offsets:
#	150
#	9507
#	28067
#	43568
#	64266
#	79204
#	100120
#	124120
#	142156
#	160089
#	177024
#	200026
#	216935
#	231745
#
# Disc length: 3270 seconds
#
# Revision: 114192374
# Processed by: cddbd v1.5.1PL0 Copyright (c) Steve Scherf et al.
# Submitted via: EasyCDDAExtractor 8.0.2.1
#
DISCID=ca0cc40e
DTITLE=Fabolous - Ghetto Fabolous
DYEAR=2001
DGENRE=Hip-Hop
TTITLE0=Click and Spark
TTITLE1=Keepin' It Gangsta
TTITLE2=Young'N
TTITLE3=Get Right
TTITLE4=Ride For This (Featuring Ja Rule)
TTITLE5=One Day
TTITLE6=Trade It All (Featuring Jagged Edge)
TTITLE7=Right Now and Later On
TTITLE8=Take You Home (Featuring Lil Mo)
TTITLE9=Get Smart
TTITLE10=Can't Deny It (Featuring Nate Dogg)
TTITLE11=Ma Be Easy
TTITLE12=We Don't Give A
TTITLE13=The Bad Guy (Featuring Pain In Da Ass)
EXTD=
EXTT0=
EXTT1=
EXTT2=
EXTT3=
EXTT4=
EXTT5=
EXTT6=
EXTT7=
EXTT8=
EXTT9=
EXTT10=
EXTT11=
EXTT12=
EXTT13=
PLAYORDER=
